<?xml version="1.0" encoding="iso-8859-1"?>
<svg version="1.1" fill-opacity="0.1"
	xmlns="http://www.w3.org/2000/svg" 
	xmlns:xlink="http://www.w3.org/1999/xlink" x="0px" y="0px" viewBox="0 0 514.105 514.105" style="enable-background:new 0 0 514.105 514.105;" xml:space="preserve">
	<g>
		<polygon points="257.498,182.808 159.151,280.941 187.311,309.101 226.778,269.421 236.164,245.741 236.164,458.221 
			278.831,458.221 278.831,245.955 287.578,269.208 327.684,309.101 355.631,281.155 		"/>
	</g>
	<g>
		<path d="M396.164,160.195h-2.133c-22.933-62.302-82.088-103.86-148.475-104.308c-88.01-0.594-159.838,70.271-160.431,158.281
			c0,3.413,0,6.613,0,10.027c-47.482,0.471-85.591,39.345-85.12,86.827c0.471,47.482,39.345,85.591,86.827,85.12h106.667v-42.667
			H86.831c-23.859,0-43.2-19.341-43.2-43.2s19.341-43.2,43.2-43.2l42.667,1.067c0,0-1.92-43.947-1.92-53.973
			c-0.469-54.972,37.561-102.788,91.229-114.704c62.801-13.944,125.014,25.663,138.958,88.464l4.693,20.053l20.053-3.627
			c4.496-0.916,9.066-1.416,13.653-1.493c41.591,0,75.307,33.716,75.307,75.307c0,41.591-33.716,75.307-75.307,75.307h-74.667
			v42.667h74.667c65.129-0.018,117.922-52.811,117.94-117.94C514.123,213.046,461.319,160.213,396.164,160.195z"/>
	</g>
</svg>
